Coordinates
version=1
nRows=43
nColumns=12
inDegrees=yes

Units are S.I. units (second, meters, Newtons, ...)
Angles are in degrees

endheader
time	SC_y	SC_z	SC_x	AC_y	AC_z	AC_x	GH_y	GH_z	GH_yy	EL_x	PS_y
       0.0              -51.59         -4.005          28.61          53.07         -3.668         -6.819         -136.2         -7.901          31.59          66.36          110.6
  0.001104              -51.58         -4.004          28.61          53.07         -3.667         -6.817         -136.2         -7.896          31.58          66.36          110.6
  0.002207              -51.58         -4.003          28.61          53.07         -3.666         -6.814         -136.1         -7.892          31.57          66.37          110.6
  0.003311              -51.57         -4.001           28.6          53.06         -3.666         -6.811         -136.1         -7.887          31.55          66.38          110.6
  0.004414              -51.56           -4.0           28.6          53.06         -3.665         -6.808         -136.0         -7.881          31.54          66.38          110.5
  0.005518              -51.56         -3.999           28.6          53.06         -3.664         -6.805         -136.0         -7.876          31.52          66.39          110.5
  0.006621              -51.55         -3.997           28.6          53.06         -3.664         -6.802         -135.9          -7.87           31.5           66.4          110.5
  0.007725              -51.54         -3.995           28.6          53.06         -3.663         -6.798         -135.9         -7.863          31.48          66.41          110.5
  0.008828              -51.53         -3.993           28.6          53.06         -3.662         -6.794         -135.8         -7.856          31.46          66.42          110.5
  0.009932              -51.52         -3.992           28.6          53.05         -3.661          -6.79         -135.7         -7.849          31.44          66.43          110.5
   0.01104              -51.51         -3.989          28.59          53.05          -3.66         -6.785         -135.7         -7.841          31.41          66.44          110.5
   0.01214               -51.5         -3.987          28.59          53.05         -3.659         -6.781         -135.6         -7.832          31.39          66.45          110.5
   0.01324              -51.49         -3.985          28.59          53.05         -3.658         -6.775         -135.5         -7.823          31.36          66.46          110.5
   0.01435              -51.48         -3.982          28.59          53.05         -3.656          -6.77         -135.4         -7.813          31.33          66.47          110.5
   0.01545              -51.46         -3.979          28.58          53.04         -3.655         -6.764         -135.3         -7.803           31.3          66.49          110.5
   0.01655              -51.45         -3.976          28.58          53.04         -3.653         -6.757         -135.2         -7.791          31.26           66.5          110.5
   0.01766              -51.43         -3.973          28.58          53.04         -3.652          -6.75         -135.1         -7.778          31.22          66.52          110.5
   0.01876              -51.41          -3.97          28.57          53.03          -3.65         -6.742         -135.0         -7.764          31.18          66.54          110.5
   0.01986              -51.39         -3.966          28.57          53.03         -3.648         -6.733         -134.8         -7.749          31.14          66.56          110.5
   0.02097              -51.37         -3.961          28.57          53.02         -3.646         -6.724         -134.7         -7.733          31.09          66.58          110.5
   0.02207              -51.35         -3.957          28.56          53.02         -3.643         -6.714         -134.5         -7.715          31.03           66.6          110.5
   0.02317              -51.32         -3.951          28.56          53.01         -3.641         -6.702         -134.4         -7.695          30.97          66.63          110.5
   0.02428               -51.3         -3.946          28.55          53.01         -3.638          -6.69         -134.2         -7.673           30.9          66.66          110.5
   0.02538              -51.27         -3.939          28.55           53.0         -3.635         -6.676         -133.9         -7.648          30.83          66.69          110.5
   0.02649              -51.23         -3.932          28.54          52.99         -3.631          -6.66         -133.7         -7.621          30.75          66.73          110.4
   0.02759              -51.19         -3.924          28.53          52.99         -3.627         -6.643         -133.4         -7.591          30.66          66.76          110.4
   0.02869              -51.15         -3.915          28.52          52.98         -3.623         -6.624         -133.1         -7.557          30.55          66.81          110.4
    0.0298               -51.1         -3.905          28.52          52.97         -3.618         -6.602         -132.8         -7.519          30.44          66.86          110.4
    0.0309              -51.04         -3.894           28.5          52.96         -3.612         -6.578         -132.4         -7.475          30.31          66.92          110.4
     0.032              -50.98         -3.881          28.49          52.94         -3.606          -6.55         -132.0         -7.426          30.16          66.98          110.4
   0.03311              -50.91         -3.867          28.48          52.93         -3.599         -6.518         -131.5          -7.37          29.99          67.05          110.3
   0.03421              -50.83          -3.85          28.46          52.91          -3.59         -6.482         -130.9         -7.306           29.8          67.14          110.3
   0.03531              -50.73         -3.831          28.45          52.89         -3.581          -6.44         -130.3         -7.232          29.57          67.23          110.3
   0.03642              -50.62         -3.808          28.43          52.87          -3.57         -6.391         -129.5         -7.146          29.31          67.35          110.2
   0.03752               -50.5         -3.782           28.4          52.84         -3.556         -6.334         -128.6         -7.045          29.01          67.48          110.2
   0.03862              -50.34         -3.751          28.37          52.81         -3.541         -6.266         -127.5         -6.926          28.65          67.63          110.1
   0.03973              -50.16         -3.714          28.34          52.77         -3.523         -6.186         -126.3         -6.785          28.22          67.82          110.1
   0.04083              -49.95          -3.67           28.3          52.73         -3.501          -6.09         -124.8         -6.616          27.71          68.04          110.0
   0.04194              -49.69         -3.617          28.25          52.67         -3.474         -5.974         -123.0         -6.411          27.09          68.31          109.9
   0.04304              -49.37         -3.552          28.19          52.61         -3.442         -5.832         -120.7         -6.161          26.33          68.64          109.8
   0.04414              -48.98         -3.471          28.11          52.52         -3.402         -5.656         -118.0         -5.853           25.4          69.04          109.7
   0.04525              -48.49         -3.371          28.02          52.42         -3.352         -5.438         -114.6         -5.468          24.24          69.54          109.5
   0.04635              -47.87         -3.245           27.9          52.29         -3.289         -5.162         -110.3         -4.983          22.77          70.18          109.3
